# xmcd
#
# Track frame offsets:
# 150
# 16279
# 34852
# 48904
# 65538
# 83032
# 101554
# 121615
# 146299
# 164887
# 178129
# 199314
# 216819
# 234907
# 252005
# 275770
#
# Disc length: 3923 seconds
#
#
# Revision: 0
# Processed by: cddbd v1.5.1PL0 Copyright (c) Steve Scherf et al.
# Submitted via: FreeRIP 2.941 
#
DISCID=df0f5110
DTITLE=Jack Derwin - Ninghdoo Sky
DYEAR=2002
DGENRE=Blues
TTITLE0=2 Peas in a Pod
TTITLE1=Where Spirits Fly Again
TTITLE2=To the Sanctuary
TTITLE3=Ninghdoo Sky
TTITLE4=Ancient World
TTITLE5=A Child is Born
TTITLE6=Cappaccino Blues
TTITLE7=Summer
TTITLE8=I've Been Running
TTITLE9=Fool For Love
TTITLE10=If I Ever
TTITLE11=Only Want to Know About Love
TTITLE12=Hope Your Spirits Free
TTITLE13=Sandstorm
TTITLE14=In My Daughters Eyes
TTITLE15=Black and White Law
EXTD=Australian blues - from Sydney
EXTT0=
EXTT1=
EXTT2=
EXTT3=
EXTT4=
EXTT5=
EXTT6=
EXTT7=
EXTT8=
EXTT9=
EXTT10=
EXTT11=
EXTT12=
EXTT13=
EXTT14=
EXTT15=
PLAYORDER=
